 http://leetleech.org/images/94012416899845090275.jpg

Screens:
 
http://leetleech.org/images/71954851032228467035.jpg
 
http://leetleech.org/images/71166626358138902849.jpg
 
http://leetleech.org/images/98168560869597517450.jpg
 
http://leetleech.org/images/03849225334642185349.jpg
 
http://leetleech.org/images/15598241880527981208.jpg

Alternative:
 
http://www.postimg.com/image/40000/photo-39042.jpg
 
http://www.postimg.com/image/40000/photo-39043.jpg
 
http://www.postimg.com/image/40000/photo-39044.jpg
 
http://www.postimg.com/image/40000/photo-39045.jpg
 
http://www.postimg.com/image/40000/photo-39046.jpg

ScreenCaps:
 
http://www.postimg.com/image/40000/photo-39048.jpg

Sucker Punch (2011) DVDRip
Format                           : AVI
Format/Info                      : Audio Video Interleave
Format profile                   : OpenDML
File size                        : 1.22 GiB
Duration                         : 1h 49mn
Overall bit rate                 : 1 585 Kbps
Writing application              : VirtualDubMod 1.5.10.2 (build 2542/release)
Writing library                  : VirtualDubMod build 2542/release
Original source form             : MAX TORRENTZ
Copyright                        : SIGISMUNT

Video
ID                               : 0
Format                           : MPEG-4 Visual
Format profile                   : AdvancedSimple@L5
Format settings, BVOP            : Yes
Format settings, QPel            : No
Format settings, GMC             : No warppoints
Format settings, Matrix          : Default (MPEG)
Codec ID                         : XVID
Codec ID/Hint                    : XviD
Duration                         : 1h 49mn
Bit rate                         : 1 390 Kbps
Width                            : 640 pixels
Height                           : 272 pixels
Display aspect ratio             : 2.35:1
Frame rate                       : 23.976 fps
Resolution                       : 24 bits
Colorimetry                      : 4:2:0
Scan type                        : Progressive
Bits/(Pixel*Frame)               : 0.333
Stream size                      : 1.07 GiB (88%)
Writing library                  : XviD 1.2.1 (UTC 2008-12-04)

Audio
ID                               : 1
Format                           : MPEG Audio
Format version                   : Version 1
Format profile                   : Layer 3
Codec ID                         : 55
Codec ID/Hint                    : MP3
Duration                         : 1h 49mn
Bit rate mode                    : Constant
Bit rate                         : 192 Kbps
Channel(s)                       : 2 channels
Sampling rate                    : 48.0 KHz
Resolution                       : 16 bits
Stream size                      : 151 MiB (12%)
Alignment                        : Aligned on interleaves
Interleave, duration             : 544 ms (13.04 video frames)
Interleave, preload duration     : 216 ms
 
http://www.imdb.com/title/tt0978764/

Source: DVDRip-this time i didn't waited for a better source DVDR/x264 to make a
bigger resolution encode because i have some important things to do these days,
audio and video it's good,sync is perfect,sample is included

This release is not seedbox supported,please seed it to the MAX

Sucker Punch (2011) DVDRip XviD-MAX Torrent Free Download
 
http://thepiratebay.org/user/extremezone/0/7

How To Get Your Maxspeed (uTorrent)

Torrent Client - Preferences - Bandwidth - Number of connections - Set aprox. 500 for each 
Torrent Client - Preferences - BiTorrent - Protocol Encryption - Forced
Bandwidth Allocation - High (Set download/upload limit - Unlimited)
Stop Other Active Torrents - Start downloading and wait for connections.
Enjoy and Seed for at least 1:1 ratio. Don't forget to say thanks/leave reviews.
Before downloading you should check/google search sample "release name""sample".
Greets to all actual/future p2p/scene QUALITY groups and affiliate websites.
Don't trust IMDb robot or bad ratings,always watch some trailers first.
Ignore stupid comments/fake/mislabeled/no-DVDrips/CAM/TS/RAR uploads.
Please spread this release/torrent to your friends/forums/etc.
If you need translation subs visit some subtitles sites.
Report if you see online streaming or other spam links.
Recommended movie player VLC PLAYER.